<?xml version="1.0" encoding="utf-8"?>
<!-- Generator: Adobe Illustrator 24.0.0, SVG Export Plug-In . SVG Version: 6.00 Build 0)  -->
<svg version="1.1" id="Chicken_x5F_wing" xmlns="http://www.w3.org/2000/svg" xmlns:xlink="http://www.w3.org/1999/xlink" x="0px"
	 y="0px" viewBox="0 0 48.8 40.5" style="enable-background:new 0 0 48.8 40.5;" xml:space="preserve">
<style type="text/css">
	.st0{fill:#B22D2D;stroke:#B22D2D;stroke-width:2;stroke-miterlimit:10;}
	.st1{fill:none;stroke:#B22D2D;stroke-width:2;stroke-miterlimit:10;}
</style>
<path id="chicken_x5F_meat" class="st0" d="M28.5,12.7c-7.2-0.6-12.9,2.7-23.2,8.9c-0.6,0.4-1.5,0.9-2.3,2C0.5,27.1,1.2,33.8,5.2,37
	c2.4,1.9,5.3,2,7,2c1.5,0,4.8,0.1,7.5-2c1.4-1.1,1.3-1.8,4.4-7.8c2.1-3.9,3.1-5.9,4.1-6.8c1.8-1.6,3.3-2,4.5-4.1
	c0.4-0.7,1.3-2.3,0.7-3.6C33.1,14.1,32.3,13,28.5,12.7z"/>
<g id="bone_group">
	<path id="bone_4" class="st1" d="M28.2,12.6c0.1,0,9.4-5.9,9.4-5.9l0.9-0.6l0.3-0.2c-0.3,0.2-0.6,0.4-0.9,0.5
		C34.7,8.6,31.5,10.6,28.2,12.6z"/>
	<line id="bone_3" class="st1" x1="33.5" y1="15.8" x2="41.6" y2="9.8"/>
	<path id="bone_2" class="st1" d="M37.9,6.7c-0.8-2-0.2-4.1,1.1-4.9c2.1-1.4,5.7,1.1,5.7,2.6c0,0.5-0.8,0.9-0.7,1.1s0.9-0.3,1.6-0.1
		c1.1,0.2,2,1.9,1.8,3.4s-1.5,2.8-3.2,3.1"/>
	<path id="bone_1" class="st1" d="M45.1,11.6c-0.3,0.1-1.5,0.5-2.8-0.1c-1-0.4-1.6-1.2-1.8-1.5"/>
</g>
</svg>
