<?xml version="1.0" encoding="utf-8"?>
<!-- Generator: Adobe Illustrator 24.0.0, SVG Export Plug-In . SVG Version: 6.00 Build 0)  -->
<svg version="1.1" id="Layer_1" xmlns="http://www.w3.org/2000/svg" xmlns:xlink="http://www.w3.org/1999/xlink" x="0px" y="0px"
	 viewBox="0 0 97.7 95.5" style="enable-background:new 0 0 97.7 95.5;" xml:space="preserve">
<path d="M95.8,47c0.9-1,0.9-2.6-0.2-3.6l0,0l-11-10c-0.5-0.5-1.2-0.7-1.8-0.7c-0.7,0-1.3,0.3-1.8,0.8l-1.5,1.6L77.2,33l1.5-1.6
	c0.5-0.5,0.7-1.2,0.7-1.8c0-0.7-0.3-1.3-0.8-1.8L65.1,15.7c-11-10-31.6-18.5-36.3-13.3c-0.5,0.5-0.7,1.2-0.7,1.8
	c0,0.7,0.4,1.2,0.8,1.8c0.9,1.1,2.8,0.5,2.8,0.5c2.2,0.7,18.9,13.7,18.9,13.7l-9.1,10c-0.9,1-0.9,2.6,0.2,3.6l2.5,2.3l-38.8,38
	c-2.5,2.7-4.1,6-4.7,9.1c-0.6,3.5,0.3,6.6,2.5,8.6l1.1,1c1.5,1.4,3.5,2.1,5.7,2.1c4,0,8.4-2.2,11.7-6c0.1-0.1,0.1-0.1,0.1-0.2
	l34-42.2l3.8,3.5c0.5,0.4,1.1,0.7,1.8,0.7s1.3-0.3,1.7-0.8l4.8-5.3l1.7,1.6l-2.5,2.7c-0.4,0.5-0.7,1.2-0.7,1.8
	c0,0.7,0.3,1.3,0.8,1.8l11,9.9c0.5,0.4,1.1,0.7,1.7,0.7l0.1,0.6v-0.6c0.7,0,1.3-0.3,1.8-0.8L95.8,47z M17.9,85.6
	c-2.6,2.9-5.7,4.3-7.9,4.3c-1,0-1.8-0.3-2.3-0.7l-1.1-1c-0.9-0.8-1.2-2.2-0.9-4c0.4-2.1,1.6-4.5,3.4-6.5L48,39.6l4.1,3.7L17.9,85.6z
	 M79.9,57l-7.2-6.5l2.5-2.7c0.4-0.5,0.7-1.2,0.7-1.8c0-0.7-0.3-1.3-0.8-1.8l-5.5-5c-0.5-0.5-1.1-0.7-1.8-0.7c-0.7,0-1.3,0.3-1.7,0.8
	l-4.8,5.3L47,31.7l9.1-10c0.5-0.5,0.7-1.2,0.7-1.8c0-0.7-0.3-1.3-0.8-1.8c0,0-5-4.4-7.4-6.3l-4.1-3.3l4.7,2.4
	c4.6,2.4,8.8,5.3,12.5,8.6L73.2,30l-1.5,1.6c-0.5,0.5-0.7,1.2-0.7,1.8c0,0.7,0.3,1.3,0.8,1.8l6.2,5.7c1,0.9,2.6,0.9,3.6-0.2l1.5-1.6
	l7.2,6.5L79.9,57z"/>
</svg>
