<?xml version="1.0" encoding="utf-8"?>
<!-- Generator: Adobe Illustrator 24.0.0, SVG Export Plug-In . SVG Version: 6.00 Build 0)  -->
<svg version="1.1" id="Layer_1" xmlns="http://www.w3.org/2000/svg" xmlns:xlink="http://www.w3.org/1999/xlink" x="0px" y="0px"
	 viewBox="0 0 19.3 28" style="enable-background:new 0 0 19.3 28;" xml:space="preserve">
<style type="text/css">
	.st0{fill:#F7570D;}
</style>
<path class="st0" d="M15.4,9.6c-0.1,1.6-0.5,3.1-1.1,4.6c-0.3,0.7-1,1.1-1.7,1.1c-0.3,0-0.5,0-0.8-0.2c-1-0.4-1.4-1.5-1-2.5
	c0.5-1.2,0.8-2.5,0.8-3.9c0-3.9-2.3-7.2-5.5-8.8C8.4,10,0,10,0,18.4C0,23.7,4.3,28,9.6,28c5.3,0,9.7-4.3,9.7-9.6
	C19.3,14.8,17.1,11.6,15.4,9.6z"/>
</svg>
