<?xml version="1.0" encoding="utf-8"?>
<!-- Generator: Adobe Illustrator 24.0.0, SVG Export Plug-In . SVG Version: 6.00 Build 0)  -->
<svg version="1.1" id="Layer_1" xmlns="http://www.w3.org/2000/svg" xmlns:xlink="http://www.w3.org/1999/xlink" x="0px" y="0px"
	 viewBox="0 0 57.2 90" style="enable-background:new 0 0 57.2 90;" xml:space="preserve">
<style type="text/css">
	.st0{fill:#F7570D;}
</style>
<path class="st0" d="M57.2,61.4C57.2,77.2,44.4,90,28.6,90C12.8,90,0,77.2,0,61.4c-0.8-16.5,15.1-31.1,17.8-46.3
	C19.2,6.9,17.1,0,17.1,0S29,8.2,25,24c0,0-1.5,5.6-1.5,7.6c0,4.7,3.8,8.5,8.5,8.5c4.7,0,8.5-3.8,8.5-8.5c0-8.1-5.5-15.4-5.5-15.4
	S57.2,32.9,57.2,61.4z"/>
</svg>
