<svg xmlns="http://www.w3.org/2000/svg" xmlns:xlink="http://www.w3.org/1999/xlink" xml:space="preserve" version="1.1" style="shape-rendering:geometricPrecision;text-rendering:geometricPrecision;image-rendering:optimizeQuality;" viewBox="0 0 231 400" x="0px" y="0px" fill-rule="evenodd" clip-rule="evenodd"><defs><style type="text/css">
   
    .fil0 {fill:black}
   
  </style></defs><g><path class="fil0" d="M23 129c2,28 12,49 43,57 -52,-52 4,-92 -4,-125 13,9 23,25 24,37 20,-26 29,-69 21,-98 97,53 73,118 64,151 -11,43 41,55 33,-12 33,39 33,86 13,123 -41,78 -162,77 -204,0 -20,-38 -17,-88 10,-133z"/></g><text x="0" y="335" fill="#000000" font-size="5px" font-weight="bold" font-family="'Helvetica Neue', Helvetica, Arial-Unicode, Arial, Sans-serif">Created by Aisyah</text><text x="0" y="340" fill="#000000" font-size="5px" font-weight="bold" font-family="'Helvetica Neue', Helvetica, Arial-Unicode, Arial, Sans-serif">from the Noun Project</text></svg>