<?xml version="1.0" encoding="utf-8"?>
<!-- Generator: Adobe Illustrator 24.0.0, SVG Export Plug-In . SVG Version: 6.00 Build 0)  -->
<svg version="1.1" id="Layer_1" xmlns="http://www.w3.org/2000/svg" xmlns:xlink="http://www.w3.org/1999/xlink" x="0px" y="0px"
	 viewBox="0 0 117.9 24.9" style="enable-background:new 0 0 117.9 24.9;" xml:space="preserve">
<style type="text/css">
	.st0{fill:#FF0000;}
</style>
<path id="mes" class="st0" d="M117,2.3l0.9-2.3L45.3,0l0,0L3.9,0C3.4,0.1,2.6,0.1,1.8,0.9C0.7,2.1,0,4.2,0,6.6
	c0,2.4,0.7,4.5,1.8,5.7c0.8,0.8,1.6,0.9,2.1,1l38.1,0.1v11.6l1.7,0C107.2,25,116.6,3.3,117,2.3z M4.1,10C3.7,9.6,3.3,8.4,3.3,6.6
	C3.3,4.9,3.8,3.7,4.1,3.3l37.2,0l0,0H42V10L4.1,10z M102,11.2c-15.8,8.3-39.2,10.3-56.6,10.4v-8.3l0,0V3.4l67,0
	C110.7,5.3,107.6,8.3,102,11.2z"/>
<path id="cirkel" class="st0" d="M52.7,5.9c-1.1-1.1-2.8-1.1-3.8,0c-1.1,1.1-1.1,2.8,0,3.8c1.1,1.1,2.8,1.1,3.8,0
	C53.7,8.7,53.7,7,52.7,5.9z M49.9,8.7c-0.4-0.4-0.4-1.1,0-1.6s1.1-0.4,1.6,0s0.4,1.1,0,1.6S50.3,9.1,49.9,8.7z"/>
</svg>
