<svg version="1.1" id="Layer_1" xmlns="http://www.w3.org/2000/svg" xmlns:xlink="http://www.w3.org/1999/xlink" x="0" y="0" viewBox="0 0 83.3 90.8" enable-background="new 0 0 83.3 90.8" xml:space="preserve">
  <path id="mes" fill="#633824" d="M82.4 2.3l-1-2.3L30.1 51.3l0 0L0.8 80.6C0.5 81 0 81.6 0 82.7c0 1.6 1 3.6 2.7 5.3 1.7 1.7 3.7 2.7 5.3 2.7 1.1 0 1.8-0.5 2.2-0.8L37.2 63l8.2 8.2 1.2-1.2C91.5 25.2 82.8 3.2 82.4 2.3zM8 87.5c-0.5 0-1.7-0.5-2.9-1.8 -1.3-1.2-1.7-2.4-1.8-2.9l26.3-26.3 0 0 0.5-0.5 4.7 4.7L8 87.5zM78.1 19.2c-5.3 17-20.5 35-32.7 47.4l-5.9-5.9 0 0 -7-7L79.9 6.3C80.1 8.8 80 13.1 78.1 19.2z"/>
  <path id="cirkel" fill="#633824" d="M39.5 50.3c-1.5 0-2.7 1.2-2.7 2.7s1.2 2.7 2.7 2.7 2.7-1.2 2.7-2.7S41 50.3 39.5 50.3zM39.5 54.2c-0.6 0-1.1-0.5-1.1-1.1s0.5-1.1 1.1-1.1 1.1 0.5 1.1 1.1S40.1 54.2 39.5 54.2z"/>
</svg>
