<?xml version="1.0" encoding="utf-8"?>
<!-- Generator: Adobe Illustrator 24.0.0, SVG Export Plug-In . SVG Version: 6.00 Build 0)  -->
<svg version="1.1" id="Layer_1" xmlns="http://www.w3.org/2000/svg" xmlns:xlink="http://www.w3.org/1999/xlink" x="0px" y="0px"
	 viewBox="0 0 83.3 90.8" style="enable-background:new 0 0 83.3 90.8;" xml:space="preserve">
<style type="text/css">
	.st0{fill:#633824;}
</style>
<g>
	<path id="mes" class="st0" d="M82.4,2.3l-1-2.3L30.1,51.3l0,0L0.8,80.6C0.5,81,0,81.6,0,82.7c0,1.6,1,3.6,2.7,5.3
		c1.7,1.7,3.7,2.7,5.3,2.7c1.1,0,1.8-0.5,2.2-0.8L37.2,63l8.2,8.2l1.2-1.2C91.5,25.2,82.8,3.2,82.4,2.3z M8,87.5
		c-0.5,0-1.7-0.5-2.9-1.8c-1.3-1.2-1.7-2.4-1.8-2.9l26.3-26.3l0,0l0.5-0.5l4.7,4.7L8,87.5z M78.1,19.2c-5.3,17-20.5,35-32.7,47.4
		l-5.9-5.9l0,0l-7-7L79.9,6.3C80.1,8.8,80,13.1,78.1,19.2z"/>
	<path id="cirkel" class="st0" d="M39.5,50.3c-1.5,0-2.7,1.2-2.7,2.7s1.2,2.7,2.7,2.7s2.7-1.2,2.7-2.7S41,50.3,39.5,50.3z
		 M39.5,54.2c-0.6,0-1.1-0.5-1.1-1.1s0.5-1.1,1.1-1.1s1.1,0.5,1.1,1.1S40.1,54.2,39.5,54.2z"/>
</g>
</svg>
